<svg xmlns="http://www.w3.org/2000/svg" width="32" height="32" viewBox="0 0 32 32">
  <defs>
    <linearGradient id="gradient" x1="0%" y1="0%" x2="100%" y2="100%">
      <stop offset="0%" stop-color="#e67e22" />
      <stop offset="100%" stop-color="#d35400" />
    </linearGradient>
  </defs>
  <circle cx="16" cy="16" r="15" fill="url(#gradient)" stroke="#fff" stroke-width="1" />
  <g fill="#fff">
    <path d="M12,10 C12,7.8 14.2,6 16,6 C17.8,6 20,7.8 20,10 C20,12.2 17.8,14 16,14 C14.2,14 12,12.2 12,10 Z" />
    <path d="M16,15 C19.9,15 23,18.1 23,22 L9,22 C9,18.1 12.1,15 16,15 Z" />
    <rect x="7" y="23" width="18" height="2" rx="1" />
    <rect x="9" y="25" width="14" height="2" rx="1" />
  </g>
</svg>